<svg id="Capa_1" data-name="Capa 1" xmlns="http://www.w3.org/2000/svg" viewBox="0 0 20 20"><defs><style>.cls-1{fill:none;}.cls-2{fill:#fff;}</style></defs><path class="cls-1" d="M-.5-.5h21v21H-.5Z"/><path class="cls-2" d="M10,5.55V2.09H1.31V17.82H18.77V5.55ZM4.77,16.09H3V14.36H4.77Zm0-3.54H3V10.82H4.77Zm0-3.46H3V7.36H4.77Zm0-3.54H3V3.82H4.77ZM8.23,16.09H6.5V14.36H8.23Zm0-3.54H6.5V10.82H8.23Zm0-3.46H6.5V7.36H8.23Zm0-3.54H6.5V3.82H8.23ZM17,16.09H10V14.36h1.73V12.64H10V10.82h1.73V9.09H10V7.36h7Zm-1.81-7H13.5v1.73h1.73Zm0,3.55H13.5v1.72h1.73Z"/></svg>